# xmcd
#
# Track frame offsets: 
#        150
#        12005
#        24087
#        43555
#        54530
#        68742
#        85110
#        96220
#        112235
#        131992
#        150817
#        166717
#        179685
#        190762
#        202900
#        221160
#        239410
#        253642
#
# Disc length: 3611 seconds
#
# Revision: 0
# Processed by: cddbd v1.5.2PL0 Copyright (c) Steve Scherf et al.
# Submitted via: ExactAudioCopy v0.99pb3
#
DISCID=eb0e1912
DTITLE=Various Artist - This is Country
DYEAR=1900
DGENRE=Country
TTITLE0=Johnny Cash/Ring of Fire
TTITLE1=Tammy Wynete/Stand by Your Man
TTITLE2=Loggins and Messina/House at Pooh Corner
TTITLE3=Willie Nelson/On the Road Again
TTITLE4=Poco/Blue Water
TTITLE5=Mickey Gilley/Stand By Me
TTITLE6=Janie Frickie/Don't Worry 'bout Me Baby
TTITLE7=Ricky Skaggs/Lovin' Only Me
TTITLE8=Marty Robbins/El Paso
TTITLE9=James Taylor/Bartenders Blues
TTITLE10=Mr. Chapin Carpenter/I Feel Lucky
TTITLE11=The O'Kanes/Oh, Darlin
TTITLE12=Vern Gosdin/Set em up Joe
TTITLE13=Charlie Rich/The Most Beautiful Girl in the World
TTITLE14=Chet Atkins, Mark Knopfler/Poor Boy Blues
TTITLE15=Dolly Parton/Romeo
TTITLE16=Sweethearts of the Rodeo/Everywhere I Turn
TTITLE17=Ray Charles/Seven Spanish Angels
EXTD=
EXTT0=
EXTT1=
EXTT2=
EXTT3=
EXTT4=
EXTT5=
EXTT6=
EXTT7=
EXTT8=
EXTT9=
EXTT10=
EXTT11=
EXTT12=
EXTT13=
EXTT14=
EXTT15=
EXTT16=
EXTT17=
PLAYORDER=
